<svg xmlns="http://www.w3.org/2000/svg" viewBox="0 0 220 300" role="img" aria-label="training dummy">
  <defs>
    <linearGradient id="vest" x1="52" x2="170" y1="128" y2="260" gradientUnits="userSpaceOnUse">
      <stop stop-color="#d29b5c"/>
      <stop offset="1" stop-color="#8c6234"/>
    </linearGradient>
    <filter id="dummy-shadow" x="-25%" y="-15%" width="150%" height="135%">
      <feDropShadow dx="0" dy="12" stdDeviation="10" flood-color="#000" flood-opacity=".32"/>
    </filter>
  </defs>
  <g filter="url(#dummy-shadow)">
    <path d="M77 102c-20 13-35 34-43 62l28 15c8-18 19-31 34-39z" fill="#886a47" stroke="#1d1b18" stroke-width="8" stroke-linejoin="round"/>
    <path d="M143 102c20 13 35 34 43 62l-28 15c-8-18-19-31-34-39z" fill="#886a47" stroke="#1d1b18" stroke-width="8" stroke-linejoin="round"/>
    <circle cx="110" cy="66" r="38" fill="#d8c7aa" stroke="#1d1b18" stroke-width="8"/>
    <path d="M76 62c17-18 49-23 70-6" stroke="#8b7455" stroke-width="9" stroke-linecap="round"/>
    <path d="M54 127c0-23 19-42 42-42h28c23 0 42 19 42 42v111c0 10-8 18-18 18H72c-10 0-18-8-18-18z" fill="url(#vest)" stroke="#1d1b18" stroke-width="8"/>
    <path d="M80 134h60M74 184h72M92 250v32M128 250v32" stroke="#3b2f22" stroke-width="8" stroke-linecap="round"/>
    <circle cx="110" cy="66" r="11" fill="#ef476f"/>
    <path d="M84 161h52l-12 41H96z" fill="#ff9f1c" stroke="#1d1b18" stroke-width="5" stroke-linejoin="round"/>
    <path d="M58 286h104" stroke="#1d1b18" stroke-width="12" stroke-linecap="round"/>
  </g>
</svg>
